<?xml version="1.0" standalone="no"?>
<!DOCTYPE svg PUBLIC "-//W3C//DTD SVG 20010904//EN"
 "http://www.w3.org/TR/2001/REC-SVG-20010904/DTD/svg10.dtd">
<svg version="1.0" xmlns="http://www.w3.org/2000/svg"
 width="700.000000pt" height="700.000000pt" viewBox="0 0 700.000000 700.000000"
 preserveAspectRatio="xMidYMid meet">
<metadata>
Created by potrace 1.11, written by Peter Selinger 2001-2013
</metadata>
<g transform="translate(0.000000,700.000000) scale(0.100000,-0.100000)"
fill="#000000" stroke="none">
<path d="M600 5242 c0 -1542 2 -1648 41 -1897 83 -531 323 -1080 681 -1559
253 -340 743 -778 1196 -1070 291 -188 615 -353 837 -427 97 -32 206 -32 300
0 316 107 714 332 1093 620 868 658 1424 1494 1597 2401 49 260 48 213 52
1873 l4 1557 -2901 0 -2900 0 0 -1498z m2415 1109 c3 -5 25 -17 50 -26 44 -17
44 -17 75 9 26 21 42 26 89 26 63 0 84 -13 96 -62 4 -16 8 -28 10 -28 1 0 22
7 46 15 24 9 54 13 66 10 33 -8 63 -45 63 -76 0 -31 25 -43 118 -54 63 -8 82
-30 82 -96 l0 -46 57 -7 c31 -4 63 -12 70 -18 15 -12 18 -84 3 -93 -19 -12
-10 -22 31 -35 64 -21 71 -32 53 -83 -10 -28 -11 -43 -4 -45 22 -8 72 -56 80
-78 5 -12 6 -34 2 -49 -7 -26 -9 -25 -73 52 -35 43 -82 101 -104 128 -58 74
-201 219 -270 274 -166 131 -328 179 -551 161 -148 -13 -255 -35 -326 -69
l-57 -27 -11 25 c-9 20 -8 26 4 33 9 5 36 40 61 79 42 64 48 70 72 64 14 -3
40 -17 58 -31 17 -13 36 -24 40 -24 4 0 25 18 45 40 32 34 43 40 78 40 22 0
43 -4 47 -9z m2876 -52 c41 -22 81 -39 87 -39 9 0 12 -80 12 -312 0 -172 3
-337 7 -367 l6 -54 -107 6 c-74 4 -142 16 -226 39 l-120 33 0 340 0 340 78 27
c129 45 150 44 263 -13z m-4503 10 l62 -24 0 -342 0 -343 -27 -5 c-16 -4 -66
-18 -113 -32 -62 -19 -116 -27 -197 -31 l-113 -5 0 357 c0 331 1 357 18 363 9
3 44 17 77 30 172 72 185 73 293 32z m444 -16 l97 -48 1 -356 c0 -196 -2 -358
-4 -360 -2 -2 -55 -1 -118 3 -80 5 -142 15 -213 36 l-100 30 -3 343 -2 344 77
27 c115 39 149 37 265 -19z m3623 20 l65 -27 0 -338 c0 -262 -3 -339 -12 -342
-207 -59 -243 -66 -335 -72 l-103 -7 0 360 0 359 53 19 c28 10 79 31 112 47
77 36 134 37 220 1z m-4487 -460 l2 -393 206 0 206 0 28 -30 c19 -21 37 -30
59 -30 30 0 71 29 71 50 0 6 79 10 216 10 l216 0 -4 390 -3 390 48 0 47 0 0
-63 c0 -57 3 -66 30 -92 38 -36 39 -69 3 -92 -51 -31 -53 -37 -53 -199 l0
-152 35 -31 c40 -34 47 -74 16 -91 -45 -23 -51 -39 -51 -121 l0 -79 -565 0
-565 0 0 74 0 74 -45 46 c-25 26 -45 52 -45 58 0 6 14 26 30 45 l30 34 0 161
0 160 -40 37 c-22 20 -40 43 -40 51 0 8 18 31 40 51 37 34 40 41 40 88 l0 52
43 -3 42 -3 3 -392z m4064 5 l3 -393 209 -3 208 -2 20 -25 c14 -18 29 -25 54
-25 41 0 74 15 74 34 0 18 86 26 276 26 l154 0 0 391 0 390 48 -3 47 -3 3 -64
c3 -55 8 -70 33 -98 16 -19 29 -36 29 -39 0 -17 -25 -46 -50 -59 l-30 -16 0
-164 0 -164 35 -27 c22 -16 35 -35 35 -49 0 -14 -13 -33 -35 -49 -35 -27 -35
-28 -35 -105 l0 -78 -287 -6 c-157 -4 -417 -7 -576 -7 l-290 0 7 48 c3 26 9
59 12 74 5 22 -2 35 -40 76 -25 27 -46 55 -46 62 0 7 14 28 30 47 l30 34 0
156 0 156 -40 37 c-49 46 -50 70 -5 104 32 25 35 31 35 82 l0 54 45 0 45 0 2
-392z m-2429 224 c68 -141 79 -196 49 -244 -11 -18 -34 -46 -51 -62 -17 -17
-31 -35 -31 -42 0 -25 22 -26 48 -1 15 13 49 41 75 61 55 41 105 47 162 20 39
-18 167 -168 159 -187 -5 -14 -35 -32 -135 -85 -81 -42 -74 -71 19 -72 17 0
32 -4 32 -9 0 -24 -26 -79 -49 -104 -55 -60 -215 -162 -301 -192 -89 -31 -189
-16 -207 32 -8 22 15 33 69 33 83 0 145 20 221 69 88 58 136 110 113 123 -11
6 -28 -3 -61 -36 -26 -24 -74 -58 -107 -76 -51 -27 -76 -34 -160 -40 -108 -9
-152 -1 -168 30 -17 31 -12 49 31 103 37 46 41 56 36 94 -3 32 -13 50 -41 76
-20 19 -36 40 -36 47 0 99 224 580 270 580 4 0 32 -53 63 -118z m665 94 c69
-19 168 -65 222 -105 74 -53 250 -231 334 -336 43 -55 93 -114 109 -132 17
-18 31 -41 32 -51 1 -20 148 -145 221 -188 90 -53 252 -38 320 30 60 60 58
150 -5 216 -30 32 -45 40 -74 40 -51 0 -81 -14 -131 -60 -42 -39 -44 -40 -50
-18 -3 13 -6 48 -6 78 0 98 53 159 159 186 l46 11 6 71 c16 174 89 262 217
262 33 0 33 -1 25 -32 -15 -61 -7 -238 16 -351 58 -278 42 -403 -65 -517 -54
-58 -121 -99 -214 -131 -53 -18 -89 -22 -195 -23 -193 -2 -224 9 -592 195
-325 164 -392 189 -507 189 -30 0 -78 -5 -106 -11 -38 -8 -55 -8 -63 0 -6 6
-22 11 -37 11 -20 0 -15 6 30 30 58 32 100 72 100 95 0 7 -25 43 -55 80 -30
37 -52 72 -48 79 43 75 60 79 155 41 74 -30 107 -31 158 -5 46 24 88 26 116 5
28 -19 54 -75 54 -115 l0 -31 53 6 c70 8 113 -17 122 -72 14 -85 10 -81 65
-75 64 6 76 -5 91 -80 11 -56 38 -98 63 -98 19 0 46 -33 46 -57 0 -16 6 -23
20 -23 13 0 20 7 20 19 0 40 -20 71 -59 91 -29 14 -42 28 -46 48 -24 115 -45
142 -110 142 -40 0 -45 3 -45 23 0 29 -33 82 -64 102 -14 9 -46 17 -71 17 -44
1 -45 2 -56 41 -13 48 -64 103 -105 113 -19 5 -44 1 -74 -11 -73 -28 -112 -30
-160 -5 -25 13 -64 23 -93 24 -45 1 -52 -2 -81 -36 l-32 -37 -50 25 c-48 25
-113 29 -154 11 -12 -6 -15 3 -17 47 -1 31 -12 79 -27 115 -14 33 -26 66 -26
74 0 16 67 50 128 67 147 39 379 46 490 16z m3049 -1903 c-5 -682 -7 -724 -52
-963 -32 -168 -89 -368 -152 -535 -50 -131 -134 -315 -144 -315 -5 0 -561 531
-1234 1180 -674 649 -1229 1180 -1235 1180 -8 0 -2214 -2075 -2427 -2283 l-72
-71 -41 89 c-104 224 -183 477 -230 735 -43 237 -50 370 -50 1023 l0 617 2821
0 2821 0 -5 -657z m-2674 -70 c199 -63 328 -236 328 -438 0 -256 -208 -455
-476 -455 -377 0 -602 392 -404 702 70 108 210 196 339 211 55 7 161 -3 213
-20z m-1392 -1148 c202 -53 349 -238 349 -441 0 -257 -209 -458 -475 -458
-142 1 -232 36 -334 130 -193 178 -194 466 -4 651 120 116 297 161 464 118z
m2670 -1 c183 -54 311 -196 342 -379 50 -293 -235 -564 -543 -516 -188 29
-336 153 -390 328 -89 287 141 580 456 582 46 1 103 -6 135 -15z m-621 -949
l789 -810 -56 -50 c-416 -372 -948 -711 -1348 -860 -167 -62 -220 -58 -445 32
-394 158 -929 501 -1283 822 l-67 61 802 810 c441 446 806 809 811 807 5 -1
364 -367 797 -812z"/>
<path d="M2525 5630 c-38 -15 -48 -38 -50 -116 l-1 -74 36 0 c25 0 51 10 81
31 92 65 101 96 37 133 -54 30 -78 37 -103 26z"/>
</g>
</svg>
